<svg width="44" height="52" viewBox="0 0 44 52" fill="none" xmlns="http://www.w3.org/2000/svg">
<path fill-rule="evenodd" clip-rule="evenodd" d="M27.9472 0.944737C24.4928 2.41425 19.5071 2.41424 16.0527 0.944727C13.246 -0.249233 10.1065 -0.359954 7.20973 0.891154C1.09659 3.53137 -1.64526 11.2469 1.01542 18.2071C1.01601 18.2086 1.01598 18.2103 1.01534 18.2118L1.84564 20.0045C4.65235 26.0642 6.76795 32.4165 8.15301 38.943L9.47058 45.1515C9.92654 46.9363 11.3536 52 13.2 52C15.183 52 17.0568 46.7492 17.3716 44.7962L19.2291 33.2728C19.4479 31.9157 20.622 30.9177 22 30.9177C23.378 30.9177 24.5522 31.9157 24.7709 33.2728L26.6284 44.7962C26.9432 46.7492 27.8886 52 29.8716 52C31.7179 52 34.0735 46.9363 34.5294 45.1515L35.847 38.943C37.2321 32.4165 39.3477 26.0642 42.1544 20.0045L42.9847 18.2118C42.984 18.2103 42.984 18.2086 42.9846 18.207C45.6453 11.2469 42.9034 3.53137 36.7903 0.891154C33.8935 -0.359967 30.754 -0.24924 27.9472 0.944737Z" fill="black"/>
</svg>
