<svg width="30" height="35" viewBox="0 0 30 35" fill="none" xmlns="http://www.w3.org/2000/svg">
<path fill-rule="evenodd" clip-rule="evenodd" d="M19.0368 0.630692C16.7132 1.61912 13.3597 1.61911 11.0362 0.630685C9.14832 -0.172401 7.03665 -0.246874 5.0882 0.594651C0.976365 2.37053 -0.867874 7.56021 0.921764 12.2417C0.92216 12.2428 0.922142 12.2439 0.921709 12.245L1.48019 13.4507C3.36805 17.5267 4.79105 21.7994 5.72268 26.1893L6.60891 30.3652C6.9156 31.5657 7.8755 34.9717 9.11741 34.9717C10.4512 34.9717 11.7116 31.4399 11.9234 30.1262L13.1727 22.3753C13.3199 21.4625 14.1096 20.7912 15.0365 20.7912C15.9634 20.7912 16.7531 21.4625 16.9003 22.3754L18.1496 30.1262C18.3614 31.4399 18.9973 34.9717 20.3311 34.9717C21.573 34.9717 23.1574 31.5657 23.4641 30.3652L24.3503 26.1893C25.2819 21.7994 26.7049 17.5267 28.5928 13.4507L29.1513 12.245C29.1509 12.2439 29.1508 12.2428 29.1512 12.2417C30.9409 7.56021 29.0966 2.37052 24.9848 0.594651C23.0363 -0.246883 20.9246 -0.172405 19.0368 0.630692Z" fill="white"/>
</svg>
