<svg width="91" height="91" viewBox="0 0 91 91" fill="none" xmlns="http://www.w3.org/2000/svg">
<circle cx="46" cy="45" r="36" fill="#231F20"/>
<path d="M30.6062 24.8092L30.2097 23.8912L30.6062 24.8092C33.2302 23.6759 36.084 23.7686 38.6612 24.8649C42.3658 26.4408 47.6341 26.4408 51.3387 24.8649C53.9159 23.7686 56.7698 23.6759 59.3938 24.8092C64.9218 27.1967 67.557 34.2881 65.0519 40.8463L64.247 42.5842C61.4088 48.7119 59.2694 55.1355 57.8688 61.7354L56.5557 67.9227C56.3507 68.7101 55.6947 70.3202 54.8602 71.7377C54.4415 72.4488 54.0061 73.0623 53.5964 73.4846C53.1461 73.9488 52.9037 74 52.8716 74C52.8605 74 52.6906 73.9951 52.387 73.5688C52.0984 73.1638 51.8219 72.5541 51.5722 71.8117C51.077 70.3393 50.7723 68.6091 50.6156 67.637L48.7582 56.1137C48.461 54.2702 46.8671 52.9177 45 52.9177C43.133 52.9177 41.539 54.2702 41.2419 56.1137L39.3844 67.637C39.2446 68.504 38.7312 70.2117 38.0118 71.6938C37.6527 72.4335 37.2686 73.0615 36.893 73.4889C36.4889 73.9486 36.2532 74 36.2 74C36.1997 74 36.1983 74 36.1952 73.9995C36.192 73.9989 36.1859 73.9976 36.1766 73.9945C36.1575 73.9881 36.1242 73.9738 36.0764 73.9425C35.9764 73.8769 35.8431 73.7566 35.6845 73.5577C35.3642 73.1558 35.0398 72.5597 34.7316 71.8478C34.1243 70.4448 33.6714 68.8097 33.4445 67.9237L32.1312 61.7354C30.7306 55.1355 28.5912 48.7119 25.753 42.5842L24.9481 40.8463C22.443 34.2881 25.0782 27.1967 30.6062 24.8092Z" fill="white" stroke="#686868" stroke-width="2"/>
<circle cx="45.5" cy="45.5" r="44" stroke="black" stroke-width="3"/>
</svg>
