<svg width="73" height="72" viewBox="0 0 73 72" fill="none" xmlns="http://www.w3.org/2000/svg">
<circle cx="36.5" cy="36" r="36" fill="#231F20"/>
<path d="M21.1062 15.8092L20.7097 14.8912L21.1062 15.8092C23.7302 14.6759 26.584 14.7686 29.1612 15.8649C32.8658 17.4408 38.1341 17.4408 41.8387 15.8649C44.4159 14.7686 47.2698 14.6759 49.8938 15.8092C55.4218 18.1967 58.057 25.2881 55.5519 31.8463L54.747 33.5842C51.9088 39.7119 49.7694 46.1355 48.3688 52.7354L47.0557 58.9227C46.8507 59.7101 46.1947 61.3202 45.3602 62.7377C44.9415 63.4488 44.5061 64.0623 44.0964 64.4846C43.6461 64.9488 43.4037 65 43.3716 65C43.3605 65 43.1906 64.9951 42.887 64.5688C42.5984 64.1638 42.3219 63.5541 42.0722 62.8117C41.577 61.3393 41.2723 59.6091 41.1156 58.637L39.2582 47.1137C38.961 45.2702 37.3671 43.9177 35.5 43.9177C33.633 43.9177 32.039 45.2702 31.7419 47.1137L29.8844 58.637C29.7446 59.504 29.2312 61.2117 28.5118 62.6938C28.1527 63.4335 27.7686 64.0615 27.393 64.4889C26.9889 64.9486 26.7532 65 26.7 65C26.6997 65 26.6983 65 26.6952 64.9995C26.692 64.9989 26.6859 64.9976 26.6766 64.9945C26.6575 64.9881 26.6242 64.9738 26.5764 64.9425C26.4764 64.8769 26.3431 64.7566 26.1845 64.5577C25.8642 64.1558 25.5398 63.5597 25.2316 62.8478C24.6243 61.4448 24.1714 59.8097 23.9445 58.9237L22.6312 52.7354C21.2306 46.1355 19.0912 39.7119 16.253 33.5842L15.4481 31.8463C12.943 25.2881 15.5782 18.1967 21.1062 15.8092Z" fill="white" stroke="#686868" stroke-width="2"/>
<path d="M36 25V37M42 31L30 31" stroke="#686868" stroke-width="2" stroke-linecap="round" stroke-linejoin="round"/>
</svg>
