<svg width="89" height="84" viewBox="0 0 89 84" fill="none" xmlns="http://www.w3.org/2000/svg">
<circle cx="42" cy="42.7821" r="36" fill="#231F20"/>
<path d="M12.3334 75.3255C10.906 73.9489 10.9062 71.6625 12.3339 70.2862L55.5837 28.5948C56.9576 27.2703 59.1394 27.2907 60.4884 28.6406L62.5102 30.6638C63.8318 31.9863 63.8806 34.1139 62.6211 35.4956L22.1993 79.8406C20.8712 81.2977 18.6023 81.3707 17.1831 80.0022L12.3334 75.3255Z" fill="#FBFBFB" stroke="#CECECE"/>
<line x1="61.6464" y1="29.4286" x2="69.6464" y2="21.4286" stroke="#CECECE"/>
<path d="M88.5 13.2821C88.5 19.8912 82.9222 25.2821 76 25.2821C69.0778 25.2821 63.5 19.8912 63.5 13.2821C63.5 6.67299 69.0778 1.2821 76 1.2821C82.9222 1.2821 88.5 6.67299 88.5 13.2821Z" fill="#FBFBFB" stroke="#CECECE"/>
<path d="M69.9879 81.587L18.2195 33.2697L25.9838 25.5052L73.8081 77.7668L69.9879 81.587Z" fill="white" stroke="#CECECE"/>
<line x1="1" y1="4.7821" x2="1" y2="19.7821" stroke="#E3E3E3" stroke-width="2"/>
<line x1="11" y1="18.7821" x2="9.71373e-05" y2="18.7821" stroke="#E3E3E3" stroke-width="2"/>
<line x1="22.3598" y1="28.5503" x2="10.3597" y2="18.5503" stroke="#E3E3E3" stroke-width="2"/>
</svg>
